<svg aria-hidden="true" class="xULTa xULSR eJFCxu jdmPpC cTqIgO bGySga bUyOMB kXATDT jzuiJt cHjsHT hXdUBW lmZmzR loIzcg hzRNfQ jweaoN" focusable="false" viewBox="0 0 24 24" xmlns="http://www.w3.org/2000/svg" style="--color: inherit; --transform: none;"><path fill-rule="evenodd" d="M10.5886 4.0007a1 1 0 0 1 .7069.2926l7.9979 7.9929c.3909.3906.3909 1.0241 0 1.4147l-5.5948 5.5907c-.3906.3903-1.0237.3902-1.4141-.0004l-7.9916-7.9938a.9999.9999 0 0 1-.2928-.707V5.0007c0-.5523.4477-1 1-1h5.5885ZM11.0025 2c.5302 0 1.0387.2105 1.4138.5853l8.9993 8.9936c.7817.7812.7816 2.0483-.0001 2.8294l-7.0104 7.0053c-.7813.7806-2.0473.7803-2.8281-.0007L2.5856 12.419A2 2 0 0 1 2 11.005V4c0-1.1046.8954-2 2-2h7.0025ZM7.502 9.0012c-.83 0-1.5-.6703-1.5-1.5005 0-.8303.67-1.5005 1.5-1.5005s1.5001.6702 1.5001 1.5005c0 .8302-.67 1.5005-1.5 1.5005Z"></path></svg>
